<svg version="1.1" id="Layer_1" xmlns="http://www.w3.org/2000/svg" xmlns:xlink="http://www.w3.org/1999/xlink" x="0px" y="0px" viewBox="0 0 595.3 595.3" style="enable-background:new 0 0 595.3 595.3;" xml:space="preserve">
  <style type="text/css">
    .sman0{fill:#FFFFFF;stroke:#808080;stroke-linecap:round;stroke-linejoin:round;stroke-miterlimit:10;}
    .sman1{fill:none;stroke:#ee5586;stroke-width:4;stroke-linecap:round;stroke-linejoin:round;stroke-miterlimit:10;}
  </style>
  
  <g>
    <path class="sman0" d="M43.4,444.6C124.5,585,304.2,633.1,444.6,551.9C585,470.7,633.1,291.1,551.9,150.7S291.1-37.8,150.7,43.4C10.3,124.5-37.8,304.2,43.4,444.6z M210,81.2c27.4,47.4,88.1,63.6,135.5,36.2c26-15,42.6-40.1,47.8-67.5c54.5,21.3,102.3,60.5,133.9,115s41.6,115.6,32.8,173.4c-26.3-9.2-56.3-7.3-82.3,7.7c-47.4,27.4-63.6,88.1-36.2,135.5c5.7,9.9,13,18.5,21.2,25.6c-10.3,8.2-21.3,15.7-33,22.5c-97.9,56.6-216.7,44.1-300.1-22.4c35.5-30.5,45.5-82.8,21.2-124.8s-74.6-59.5-118.7-43.9C16,233.2,64.5,124,162.4,67.5c11.7-6.8,23.8-12.6,36-17.4C200.4,60.7,204.2,71.3,210,81.2z"/>

    <!-- Replace the profile picture placeholder with your image -->
    <image class="sman1" xlink:href="img/fortest.jpg" x="95" y="75" width="20" height="30" />

    <path id="svg-concept" class="sman1" d="M551.9,150.7C470.7,10.3,291.1-37.8,150.7,43.4C10.3,124.5-37.8,304.2,43.4,444.6s260.8,188.5,401.2,107.3C585,470.7,633.1,291.1,551.9,150.7z"/>

    <animateTransform  
    
      type="rotate"
      attributeName="transform" 
      begin="0s" 
      dur="5s" 
      from="0 298 298" 
      to="360 298 298" 
      repeatCount="indefinite" >
    </animateTransform>
  </g>
</svg>
